# xmcd
#
# Track frame offsets: 
#        150
#        4805
#        24805
#        25466
#        47544
#        48252
#        72556
#        100316
#        137180
#
# Disc length: 4386 seconds
#
# Revision: 0
# Processed by: cddbd v1.5.2PL0 Copyright (c) Steve Scherf et al.
# Submitted via: ExactAudioCopy v0.95b4
#
DISCID=72112009
DTITLE=Soziale Kontakte - Die Einzige Alternative
DYEAR=2000
DGENRE=Rap
TTITLE0=Hey Pal
TTITLE1=Botanischer Garten
TTITLE2=X-Akte Intro
TTITLE3=X-Akte
TTITLE4=Geld Intro
TTITLE5=Geld
TTITLE6=Tagebuch
TTITLE7=Hey Hey
TTITLE8=Hybrid CD
EXTD=
EXTT0=
EXTT1=
EXTT2=
EXTT3=
EXTT4=
EXTT5=
EXTT6=
EXTT7=
EXTT8=
PLAYORDER=
